<?xml version="1.0" encoding="utf-8"?>
<!-- Generator: Adobe Illustrator 25.4.1, SVG Export Plug-In . SVG Version: 6.00 Build 0)  -->
<svg version="1.1" id="Layer_1" xmlns="http://www.w3.org/2000/svg" xmlns:xlink="http://www.w3.org/1999/xlink" x="0px" y="0px"
	 viewBox="0 0 315.8 179.9" style="enable-background:new 0 0 315.8 179.9;" xml:space="preserve">
<style type="text/css">
	.st0{fill:#2B2F3B;}
</style>
<path class="st0" d="M108,117.3V99.4h11.3v2.7h-8.5v4.7h7.1v2.7h-7.1v5.2h8.5v2.6L108,117.3z"/>
<path class="st0" d="M123,117.3V104h2.6v2.1c0.5-0.7,1.1-1.3,1.9-1.7c0.8-0.4,1.6-0.7,2.5-0.7c3.1,0,4.6,1.8,4.6,5.5v8.2H132v-8
	c0-2.3-1-3.4-2.8-3.3c-0.6,0-1.2,0.1-1.8,0.4c-0.5,0.3-0.9,0.7-1.3,1.1c-0.3,0.5-0.5,1-0.5,1.6v8.1L123,117.3L123,117.3z"/>
<path class="st0" d="M144.2,123.2c-1,0-1.9-0.2-2.9-0.4c-0.8-0.2-1.6-0.6-2.3-1.2l1-2c0.6,0.4,1.2,0.8,1.9,1
	c0.7,0.3,1.5,0.4,2.3,0.3c2.8,0,4.3-1.3,4.3-4v-1.7c-0.3,0.5-0.6,0.9-1.1,1.2c-0.5,0.4-1,0.7-1.6,0.9c-0.6,0.2-1.2,0.3-1.8,0.3
	c-2.4,0-4.6-1.3-5.8-3.4c-1.2-2.2-1.2-4.9,0-7.2c0.5-1,1.3-1.9,2.3-2.5c1-0.6,2.1-0.9,3.3-0.9c0.9,0,1.8,0.2,2.6,0.6
	c0.7,0.3,1.4,0.8,1.9,1.4v-1.8h2.6v12.6c0.1,1.8-0.6,3.6-1.8,4.9C147.9,122.6,146.1,123.3,144.2,123.2z M144.3,115.2
	c0.8,0,1.5-0.2,2.2-0.6c0.6-0.4,1.1-0.9,1.5-1.6c0.7-1.5,0.7-3.2,0-4.7c-0.3-0.7-0.9-1.2-1.5-1.6c-1.4-0.8-3-0.8-4.4,0
	c-0.6,0.4-1.1,1-1.5,1.6c-0.7,1.5-0.7,3.2,0,4.7c0.3,0.7,0.9,1.2,1.5,1.6C142.8,115,143.5,115.2,144.3,115.2L144.3,115.2z"/>
<path class="st0" d="M154.8,117.3V98.4h2.6v18.9H154.8z"/>
<path class="st0" d="M166.1,117.6c-1.1,0-2.1-0.3-3-0.9c-0.9-0.6-1.7-1.5-2.2-2.5c-1.1-2.3-1.1-4.9,0-7.2c0.5-1,1.3-1.9,2.2-2.5
	c1-0.6,2.1-0.9,3.2-0.9c0.9,0,1.9,0.2,2.7,0.7c0.7,0.4,1.3,1,1.8,1.7v-2h2.6v13.4h-2.6v-2.1c-0.5,0.7-1.2,1.3-2,1.7
	C168,117.3,167.1,117.6,166.1,117.6z M166.8,115.2c0.7,0,1.5-0.2,2.1-0.6c0.6-0.4,1.1-1,1.4-1.6c0.4-0.7,0.5-1.6,0.5-2.4
	c0-0.8-0.2-1.6-0.5-2.3c-0.3-0.7-0.8-1.2-1.4-1.6c-1.3-0.8-2.9-0.8-4.2,0c-0.6,0.4-1.1,1-1.4,1.6c-0.4,0.7-0.5,1.5-0.5,2.3
	c0,0.8,0.2,1.6,0.5,2.4c0.3,0.7,0.8,1.2,1.4,1.6C165.4,114.9,166.1,115.2,166.8,115.2z"/>
<path class="st0" d="M177.1,117.3V104h2.6v2.1c0.5-0.7,1.1-1.3,1.9-1.7c0.8-0.4,1.6-0.7,2.5-0.7c3.1,0,4.6,1.8,4.6,5.5v8.2h-2.6v-8
	c0-2.3-1-3.4-2.8-3.3c-0.6,0-1.2,0.1-1.8,0.4c-0.5,0.3-0.9,0.7-1.3,1.1c-0.3,0.5-0.5,1-0.5,1.6v8.1L177.1,117.3L177.1,117.3z"/>
<path class="st0" d="M197.9,117.6c-1.2,0-2.3-0.3-3.3-0.9c-1-0.6-1.8-1.5-2.3-2.5c-0.6-1.1-0.9-2.3-0.8-3.6c0-1.2,0.3-2.5,0.8-3.6
	c0.5-1,1.3-1.9,2.3-2.5c1-0.6,2.1-0.9,3.2-0.9c0.9,0,1.7,0.2,2.5,0.6c0.7,0.3,1.4,0.8,1.9,1.4v-7.1h2.6v18.9h-2.6v-1.8
	c-0.5,0.6-1.1,1.1-1.8,1.5C199.6,117.4,198.8,117.5,197.9,117.6z M198.2,115.4c0.7,0,1.5-0.2,2.1-0.6c0.6-0.4,1.1-1,1.4-1.7
	c0.4-0.7,0.5-1.6,0.5-2.4c0-0.8-0.2-1.6-0.5-2.4c-0.3-0.7-0.8-1.3-1.4-1.7c-1.3-0.8-2.9-0.8-4.2,0c-0.6,0.4-1.1,1-1.4,1.7
	c-0.4,0.7-0.5,1.6-0.5,2.4c0,0.8,0.2,1.6,0.5,2.4c0.3,0.7,0.8,1.3,1.4,1.7C196.8,115.1,197.5,115.3,198.2,115.4z"/>
<path class="st0" d="M40.8,92.2c-3.8,0-7.5-1.5-10.2-4.1c-1.3-1.3-2.3-2.8-3-4.5c-0.7-1.8-1.1-3.7-1.1-5.6c0-1.9,0.4-3.8,1.1-5.5
	c0.7-1.7,1.7-3.2,3-4.5c1.3-1.3,2.9-2.3,4.6-3c1.8-0.7,3.7-1.1,5.6-1.1c1.4,0,2.8,0.2,4.1,0.6c1.3,0.4,2.5,0.9,3.6,1.7
	c1,0.7,1.9,1.5,2.7,2.5l-2.8,2.9c-2-2.1-4.7-3.3-7.6-3.4c-5.4-0.1-9.8,4.2-9.9,9.6c0,0,0,0,0,0v0.3c0,1.3,0.3,2.7,0.8,3.9
	c0.5,1.2,1.3,2.3,2.2,3.2c0.9,0.9,2,1.6,3.2,2.2c1.2,0.5,2.6,0.8,3.9,0.8c1.3,0,2.6-0.3,3.8-0.8c1.1-0.5,2-1.2,2.8-2.1
	c0.7-0.9,1-1.9,1-3v-0.2h-7.8v-4.2H53c0.1,0.4,0.1,0.8,0.2,1.2v1.1c0,2.2-0.5,4.4-1.6,6.3c-1.1,1.8-2.6,3.3-4.4,4.3
	C45.2,91.6,43,92.1,40.8,92.2z"/>
<path class="st0" d="M66.4,92.2c-3.9,0.1-7.5-1.8-9.6-5.1c-1.9-3.5-1.9-7.6,0-11.1c0.9-1.6,2.2-2.9,3.7-3.9c1.7-1,3.6-1.4,5.5-1.4
	c1.7,0,3.3,0.5,4.8,1.3c3,1.8,4.8,5.1,4.5,8.6v1.7H59.5c0.2,1.7,1,3.3,2.3,4.4c1.4,1.1,3.1,1.7,4.9,1.6c1,0,1.9-0.2,2.8-0.5
	c1.1-0.5,2-1.1,2.9-1.9l2,2.9c-1.1,1-2.3,1.8-3.7,2.3C69.4,91.8,67.9,92.2,66.4,92.2z M66,74.3c-3.5,0-5.7,1.6-6.3,4.8h11.5v-0.3
	c-0.1-0.8-0.4-1.6-0.9-2.3C69.3,75.1,67.7,74.3,66,74.3z"/>
<path class="st0" d="M78.9,91.8V71.2h4v3.2c0.7-1.1,1.7-2,2.9-2.6c1.2-0.7,2.5-1,3.9-1c4.7,0,7.1,2.8,7.1,8.5v12.6h-4.1V79.4
	c0-3.6-1.4-5.2-4.4-5.1c-1,0-1.9,0.2-2.8,0.7c-0.8,0.4-1.5,1-2,1.8c-0.5,0.7-0.7,1.6-0.7,2.5v12.5L78.9,91.8L78.9,91.8z"/>
<path class="st0" d="M110.8,92.2c-1.9,0-3.8-0.4-5.4-1.4c-1.6-0.9-2.9-2.2-3.8-3.8c-1.8-3.5-1.8-7.6,0-11.1c0.9-1.6,2.2-2.9,3.8-3.8
	c3.3-1.9,7.5-1.9,10.8,0c1.6,0.9,2.9,2.2,3.8,3.8c1.8,3.5,1.8,7.7,0,11.2c-0.9,1.6-2.2,2.9-3.8,3.8
	C114.6,91.8,112.7,92.2,110.8,92.2z M110.8,88.5c1.2,0,2.3-0.3,3.3-0.9c1-0.6,1.8-1.5,2.3-2.5c0.6-1.1,0.8-2.4,0.8-3.6
	c0-1.2-0.2-2.5-0.8-3.6c-0.5-1-1.3-1.9-2.3-2.5c-2-1.2-4.6-1.2-6.6,0c-1,0.6-1.8,1.5-2.3,2.5c-1.1,2.3-1.1,4.9,0,7.2
	c0.6,1,1.4,1.9,2.4,2.5C108.6,88.2,109.7,88.5,110.8,88.5z"/>
<path class="st0" d="M124.7,91.8V71.2h4.1v3.3c0.7-1.1,1.7-2,2.8-2.6c1.1-0.7,2.4-1.1,3.7-1.1c3.2,0,5.3,1.4,6.3,4.3
	c0.4-0.9,1-1.6,1.8-2.2c0.8-0.6,1.7-1.2,2.6-1.6c0.9-0.4,1.8-0.6,2.8-0.6c4.6,0,6.9,2.9,6.9,8.6v12.4h-4.1v-12
	c0.1-1.4-0.3-2.8-1.1-3.9c-0.8-0.9-1.9-1.3-3.1-1.2c-1.4,0-2.7,0.5-3.7,1.4c-1,0.9-1.5,2.2-1.5,3.5v12.4h-4.1V79.6
	c0.1-1.3-0.2-2.6-1-3.7c-0.7-0.9-1.8-1.4-3-1.3c-0.9,0-1.8,0.2-2.6,0.7c-0.8,0.4-1.4,1-1.9,1.7c-0.5,0.7-0.7,1.6-0.7,2.5v12.4
	L124.7,91.8L124.7,91.8z"/>
<path class="st0" d="M162.9,66.6c-0.7,0-1.4-0.2-2-0.7c-1-1-1-2.7,0-3.7c0.5-0.5,1.3-0.8,2-0.7c0.7,0,1.4,0.2,2,0.7
	c0.5,0.5,0.7,1.2,0.7,1.9c0,0.7-0.2,1.3-0.7,1.8C164.4,66.3,163.7,66.6,162.9,66.6z M160.9,91.8V71.2h4v20.7h-4V91.8z"/>
<path class="st0" d="M179,92.2c-1.8,0-3.6-0.5-5.1-1.5c-1.5-1-2.7-2.3-3.6-3.8c-1.8-3.4-1.8-7.6,0-11c0.8-1.6,2.1-2.9,3.6-3.8
	c1.5-0.9,3.3-1.4,5.1-1.4c1.7,0,3.4,0.4,5,1.1c1.4,0.7,2.6,1.7,3.4,3l-2.2,2.8c-0.7-1-1.6-1.8-2.6-2.3c-1-0.6-2.1-0.9-3.2-0.9
	c-1.2,0-2.4,0.3-3.4,0.9c-1,0.6-1.8,1.5-2.3,2.5c-0.6,1.1-0.9,2.3-0.9,3.6c0,1.3,0.3,2.5,0.9,3.6c0.6,1,1.4,1.9,2.4,2.5
	c1,0.6,2.1,1,3.3,0.9c2.3-0.1,4.5-1.3,5.8-3.2l2.2,2.8c-0.9,1.3-2.2,2.3-3.6,2.9C182.4,91.7,180.7,92.2,179,92.2z"/>
<path class="st0" d="M197.3,92.2c-1.6,0-3.2-0.3-4.7-0.9c-1.4-0.6-2.6-1.5-3.5-2.7l2.8-2.4c0.7,0.9,1.6,1.5,2.6,2
	c1,0.4,2.1,0.6,3.2,0.6c0.9,0,1.7-0.2,2.4-0.7c0.6-0.5,0.9-1.2,0.9-1.9c0-0.6-0.3-1.2-0.7-1.7c-1.1-0.6-2.2-1.1-3.4-1.3
	c-1.3-0.3-2.5-0.8-3.7-1.3c-0.9-0.4-1.6-1-2.2-1.7c-0.8-1-1.2-2.3-1.1-3.6c0-1.1,0.3-2.2,1-3.1c0.7-0.9,1.6-1.6,2.7-2.1
	c1.2-0.5,2.5-0.8,3.8-0.8c1.5,0,2.9,0.3,4.3,0.9c1.3,0.5,2.4,1.4,3.3,2.4l-2.3,2.5c-0.7-0.8-1.6-1.4-2.6-1.8
	c-0.8-0.4-1.6-0.7-2.5-0.7c-0.9,0-1.8,0.2-2.6,0.6c-0.6,0.4-1,1.1-0.9,1.8c0,0.7,0.3,1.4,0.9,1.7c1.1,0.7,2.3,1.1,3.5,1.3
	c1.1,0.3,2.2,0.7,3.2,1.1c0.7,0.3,1.4,0.8,2,1.4c0.5,0.5,0.9,1.1,1.1,1.7c0.2,0.7,0.3,1.5,0.3,2.2c0,1.1-0.3,2.3-1,3.2
	c-0.7,1-1.6,1.7-2.7,2.2C200.2,91.8,198.8,92.2,197.3,92.2z"/>
<path class="st0" d="M199,150.2h-9.7c-1.8,0-3.2,1.4-3.2,3.2c0,1.7,1.5,3.2,3.2,3.2h9.7c1.8,0,3.2-1.4,3.2-3.2
	C202.2,151.7,200.8,150.3,199,150.2z"/>
<path class="st0" d="M277,140.6h-9.8c-1.8,0-3.2,1.4-3.2,3.2c0,1.7,1.5,3.2,3.2,3.2h9.8c1.8,0,3.2-1.4,3.2-3.2
	C280.2,142,278.7,140.6,277,140.6z"/>
<path class="st0" d="M277,130.8h-9.8c-1.8,0-3.2,1.5-3.2,3.2c0,0,0,0,0,0c0,1.7,1.5,3.2,3.2,3.2h9.8c1.8,0,3.2-1.4,3.2-3.2
	C280.2,132.2,278.8,130.8,277,130.8z"/>
<path class="st0" d="M277,121.1h-9.8c-1.8-0.1-3.3,1.3-3.5,3.1c-0.1,1.8,1.2,3.3,3,3.4h10.2c1.8,0.2,3.4-1.2,3.5-2.9
	c0.2-1.8-1.2-3.4-2.9-3.5c0,0-0.1,0-0.1,0H277z"/>
<path class="st0" d="M277,111.3h-9.8c-1.8,0-3.2,1.4-3.2,3.2c0,1.7,1.5,3.2,3.2,3.2h9.8c1.8,0,3.2-1.4,3.2-3.2
	C280.2,112.8,278.7,111.4,277,111.3z"/>
<path class="st0" d="M277,101.6h-9.8c-1.8-0.1-3.3,1.3-3.4,3.1s1.3,3.3,3.1,3.4l0,0h10.2c1.8,0.1,3.3-1.3,3.4-3.1s-1.3-3.3-3.1-3.4
	H277z"/>
<path class="st0" d="M257.5,140.6h-9.7c-1.8,0-3.2,1.4-3.2,3.2c0,1.7,1.5,3.2,3.2,3.2h9.7c1.8,0,3.2-1.4,3.2-3.2
	S259.3,140.6,257.5,140.6C257.5,140.6,257.5,140.6,257.5,140.6z"/>
<path class="st0" d="M257.5,130.8h-9.7c-1.8,0-3.2,1.4-3.2,3.2c0,1.7,1.5,3.2,3.2,3.2h9.7c1.8,0,3.2-1.4,3.2-3.2
	S259.3,130.8,257.5,130.8C257.5,130.8,257.5,130.8,257.5,130.8z"/>
<path class="st0" d="M257.5,121.1h-9.7c-1.8-0.1-3.3,1.3-3.5,3.1c-0.1,1.8,1.2,3.3,3,3.4h10.2c1.8,0.2,3.4-1.2,3.5-2.9
	c0.2-1.8-1.2-3.4-2.9-3.5c0,0-0.1,0-0.1,0H257.5z"/>
<path class="st0" d="M257.5,111.3h-9.7c-1.8,0-3.2,1.4-3.2,3.2c0,1.7,1.5,3.2,3.2,3.2h9.7c1.8,0,3.2-1.4,3.2-3.2
	C260.7,112.8,259.3,111.3,257.5,111.3z"/>
<path class="st0" d="M257.5,101.6h-9.7c-1.8-0.1-3.3,1.3-3.4,3.1c-0.1,1.8,1.3,3.3,3.1,3.4l0,0h10.1c1.8,0.1,3.3-1.3,3.4-3.1
	s-1.3-3.3-3.1-3.4H257.5z"/>
<path class="st0" d="M257.5,91.8h-9.7c-1.8,0-3.2,1.4-3.2,3.2c0,1.7,1.5,3.2,3.2,3.2h9.7c1.8,0,3.2-1.4,3.2-3.2
	C260.7,93.3,259.3,91.8,257.5,91.8z"/>
<path class="st0" d="M257.5,82.2h-9.7c-1.8-0.1-3.3,1.3-3.4,3.1c-0.1,1.8,1.3,3.3,3.1,3.4l0,0h10.1c1.8,0.1,3.3-1.3,3.4-3.1
	s-1.3-3.3-3.1-3.4l0,0H257.5z"/>
<path class="st0" d="M257.5,72.3h-9.7c-1.8,0-3.2,1.4-3.2,3.2c0,1.8,1.4,3.2,3.2,3.2h9.7c1.8,0,3.2-1.4,3.2-3.2
	C260.7,73.8,259.3,72.3,257.5,72.3z"/>
<path class="st0" d="M257.5,62.8h-9.7c-1.8,0-3.2,1.4-3.2,3.2c0,1.8,1.4,3.2,3.2,3.2h9.7c1.8,0,3.2-1.4,3.2-3.2
	C260.8,64.2,259.4,62.8,257.5,62.8C257.6,62.7,257.6,62.7,257.5,62.8z"/>
<path class="st0" d="M257.5,53h-9.7c-1.8-0.1-3.3,1.3-3.4,3.1c-0.1,1.8,1.3,3.3,3.1,3.4h10.1c1.8,0.1,3.3-1.3,3.4-3.1
	s-1.3-3.3-3.1-3.4H257.5z"/>
<path class="st0" d="M199,140.6h-9.7c-1.8,0-3.2,1.4-3.2,3.2c0,1.7,1.5,3.2,3.2,3.2h9.7c1.8,0,3.2-1.4,3.2-3.2
	C202.2,142,200.8,140.6,199,140.6z"/>
<path class="st0" d="M218.5,140.6h-9.8c-1.8,0-3.2,1.4-3.2,3.2c0,1.7,1.5,3.2,3.2,3.2h9.8c1.8,0,3.2-1.4,3.2-3.2
	C221.7,142,220.3,140.6,218.5,140.6z"/>
<path class="st0" d="M218.5,130.8h-9.8c-1.8,0-3.2,1.4-3.2,3.2c0,1.7,1.5,3.2,3.2,3.2h9.8c1.8,0,3.2-1.4,3.2-3.2
	S220.3,130.8,218.5,130.8C218.5,130.8,218.5,130.8,218.5,130.8z"/>
<path class="st0" d="M238,140.6h-9.8c-1.8,0-3.2,1.4-3.2,3.2c0,1.7,1.5,3.2,3.2,3.2h9.8c1.8,0,3.2-1.4,3.2-3.2
	C241.2,142,239.8,140.6,238,140.6z"/>
<path class="st0" d="M238,130.8h-9.8c-1.8,0-3.2,1.5-3.2,3.2c0,0,0,0,0,0c0,1.7,1.5,3.2,3.2,3.2h9.8c1.8,0,3.2-1.4,3.2-3.2
	S239.8,130.8,238,130.8C238,130.8,238,130.8,238,130.8L238,130.8z"/>
<path class="st0" d="M238,121.1h-9.8c-1.8-0.1-3.3,1.3-3.5,3.1c-0.1,1.8,1.2,3.3,3,3.4h10.2c1.8,0.2,3.4-1.2,3.5-2.9
	c0.2-1.8-1.2-3.4-2.9-3.5c0,0-0.1,0-0.1,0H238z"/>
<path class="st0" d="M238,111.3h-9.8c-1.8,0-3.2,1.4-3.2,3.2c0,1.7,1.5,3.2,3.2,3.2h9.8c1.8,0,3.2-1.4,3.2-3.2
	C241.2,112.8,239.8,111.3,238,111.3z"/>
<path class="st0" d="M238,101.6h-9.8c-1.8-0.1-3.3,1.3-3.4,3.1c-0.1,1.8,1.3,3.3,3.1,3.4l0,0h10.2c1.8,0.1,3.3-1.3,3.4-3.1
	c0.1-1.8-1.3-3.3-3.1-3.4H238z"/>
<path class="st0" d="M238,91.8h-9.8c-1.8,0-3.2,1.4-3.2,3.2c0,1.7,1.5,3.2,3.2,3.2h9.8c1.8,0,3.2-1.4,3.2-3.2
	C241.2,93.3,239.8,91.8,238,91.8z"/>
<path class="st0" d="M238,82.2h-9.8c-1.8-0.1-3.3,1.3-3.4,3.1c-0.1,1.8,1.3,3.3,3.1,3.4l0,0H238c1.8,0.1,3.3-1.3,3.4-3.1
	c0.1-1.8-1.3-3.3-3.1-3.4H238z"/>
<path class="st0" d="M238,72.3h-9.8c-1.8,0-3.2,1.4-3.2,3.2c0,1.8,1.4,3.2,3.2,3.2l0,0h9.8c1.8,0,3.2-1.4,3.2-3.2
	C241.2,73.8,239.8,72.3,238,72.3z"/>
<path class="st0" d="M238,62.8h-9.8c-1.8,0-3.2,1.4-3.2,3.2c0,1.8,1.4,3.2,3.2,3.2l0,0h9.8c1.8,0,3.2-1.4,3.2-3.2
	C241.2,64.2,239.8,62.8,238,62.8C238.1,62.7,238,62.7,238,62.8z"/>
<path class="st0" d="M238,53h-9.8c-1.8-0.1-3.3,1.3-3.4,3.1c-0.1,1.8,1.3,3.3,3.1,3.4H238c1.8,0.1,3.3-1.3,3.4-3.1
	c0.1-1.8-1.3-3.3-3.1-3.4H238z"/>
<path class="st0" d="M238,43.2h-9.8c-1.8-0.1-3.3,1.3-3.4,3.1c-0.1,1.8,1.3,3.3,3.1,3.4H238c1.8,0.1,3.3-1.3,3.4-3.1
	c0.1-1.8-1.3-3.3-3.1-3.4l0,0C238.2,43.2,238.1,43.2,238,43.2C238,43.2,238,43.2,238,43.2z"/>
<path class="st0" d="M241.2,153.4c0,1.8-1.4,3.2-3.2,3.2c-1.8,0-3.2-1.4-3.2-3.2s1.4-3.2,3.2-3.2c0,0,0,0,0,0l0,0
	C239.8,150.3,241.2,151.7,241.2,153.4z"/>
<path class="st0" d="M182.8,153.4c0,1.8-1.4,3.2-3.2,3.2c-1.8,0-3.2-1.4-3.2-3.2s1.4-3.2,3.2-3.2c0,0,0,0,0,0l0,0
	C181.4,150.3,182.8,151.7,182.8,153.4z"/>
<path class="st0" d="M202.3,134.1c0,1.8-1.4,3.2-3.2,3.2c-1.8,0-3.2-1.4-3.2-3.2c0-1.8,1.4-3.2,3.2-3.2
	C200.9,130.9,202.3,132.3,202.3,134.1z"/>
<path class="st0" d="M221.8,114.6c0,1.8-1.4,3.2-3.2,3.2c-1.8,0-3.2-1.4-3.2-3.2c0-1.8,1.4-3.2,3.2-3.2l0,0
	C220.4,111.4,221.8,112.8,221.8,114.6z"/>
<path class="st0" d="M289.9,114.6c0,1.8-1.4,3.2-3.2,3.2c-1.8,0-3.2-1.4-3.2-3.2c0-1.8,1.4-3.2,3.2-3.2l0,0
	C288.5,111.3,289.9,112.7,289.9,114.6C289.9,114.5,289.9,114.5,289.9,114.6z"/>
<path class="st0" d="M289.9,134.1c0,1.8-1.4,3.2-3.2,3.2c-1.8,0-3.2-1.4-3.2-3.2c0-1.8,1.4-3.2,3.2-3.2l0,0
	C288.5,130.8,289.9,132.2,289.9,134.1C289.9,134,289.9,134,289.9,134.1z"/>
<path class="st0" d="M289.9,104.8c0,1.8-1.4,3.2-3.2,3.2c-1.8,0-3.2-1.4-3.2-3.2c0-1.8,1.4-3.2,3.2-3.2l0,0
	C288.5,101.6,289.9,103,289.9,104.8C289.9,104.8,289.9,104.8,289.9,104.8z"/>
<path class="st0" d="M221.8,104.8c0,1.8-1.4,3.2-3.2,3.2c-1.8,0-3.2-1.4-3.2-3.2c0-1.8,1.4-3.2,3.2-3.2l0,0
	C220.4,101.7,221.8,103.1,221.8,104.8z"/>
<path class="st0" d="M270.5,95.1c0,1.8-1.4,3.2-3.2,3.2c-1.8,0-3.2-1.4-3.2-3.2c0-1.8,1.4-3.2,3.2-3.2l0,0
	C269.1,91.9,270.5,93.3,270.5,95.1z"/>
<path class="st0" d="M221.8,95.1c0,1.8-1.4,3.2-3.2,3.2c-1.8,0-3.2-1.4-3.2-3.2c0-1.8,1.4-3.2,3.2-3.2l0,0
	C220.4,91.9,221.8,93.3,221.8,95.1z"/>
<path class="st0" d="M270.5,85.3c0,1.8-1.4,3.2-3.2,3.2c-1.7,0-3.2-1.5-3.2-3.2c0-1.8,1.4-3.2,3.2-3.2l0,0
	C269.1,82.2,270.5,83.6,270.5,85.3z"/>
<path class="st0" d="M221.8,56.2c0,1.8-1.4,3.2-3.2,3.2c-1.8,0-3.2-1.4-3.2-3.2s1.4-3.2,3.2-3.2l0,0l0,0
	C220.4,53,221.8,54.4,221.8,56.2z"/>
<path class="st0" d="M251,46.5c0,1.8-1.5,3.2-3.3,3.2c-1.8,0-3.2-1.5-3.2-3.3c0-1.8,1.5-3.2,3.3-3.2l0,0
	C249.6,43.2,251,44.7,251,46.5z"/>
<path class="st0" d="M221.8,46.5c0,1.8-1.4,3.2-3.2,3.2c-1.8,0-3.2-1.4-3.2-3.2s1.4-3.2,3.2-3.2l0,0
	C220.4,43.3,221.8,44.7,221.8,46.5z"/>
<path class="st0" d="M251,36.8c0,1.8-1.5,3.2-3.3,3.2c-1.8,0-3.2-1.5-3.2-3.3c0-1.8,1.5-3.2,3.3-3.2l0,0C249.6,33.5,251,35,251,36.8
	z"/>
<path class="st0" d="M241.2,36.8c0,1.8-1.4,3.2-3.2,3.2c0,0,0,0,0,0c-1.8,0-3.2-1.4-3.2-3.2s1.4-3.2,3.2-3.2
	C239.7,33.6,241.2,35,241.2,36.8C241.2,36.7,241.2,36.8,241.2,36.8L241.2,36.8z"/>
<path class="st0" d="M241.2,27c0,1.8-1.4,3.2-3.2,3.2c-1.8,0-3.2-1.4-3.2-3.2c0-1.8,1.4-3.2,3.2-3.2c0,0,0,0,0,0l0,0
	C239.8,23.8,241.2,25.2,241.2,27z"/>
</svg>
